# xmcd
#
# Track frame offsets:
#	150
#	24633
#	42971
#	58063
#	77395
#	97156
#	114699
#	129811
#	144962
#	162167
#	181905
#	199238
#	217200
#	237638
#
# Disc length: 3379 seconds
#
# Revision: 1
# Processed by: cddbd v1.5.2PL0 Copyright (c) Steve Scherf et al.
# Submitted via: audiograbber 1.83.01
#
DISCID=c60d310e
DTITLE=Chris Lane Band - Let's Ride
DYEAR=2012
DGENRE=Country
TTITLE0=I Go Back
TTITLE1=All I Ever Needed
TTITLE2=Let's Ride
TTITLE3=Starting Tonight
TTITLE4=More Than That
TTITLE5=Harder Than It Should Be
TTITLE6=Just Like You
TTITLE7=Carolina Kiss
TTITLE8=Alone
TTITLE9=Too Tennessee
TTITLE10=Chasin' The Sun Down
TTITLE11=Let's Ride (Rap Version)
TTITLE12=All I Ever Needed (Acoustic)
TTITLE13=Georgia
EXTD=
EXTT0=
EXTT1=
EXTT2=
EXTT3=
EXTT4=
EXTT5=
EXTT6=
EXTT7=
EXTT8=
EXTT9=
EXTT10=
EXTT11=
EXTT12=
EXTT13=
PLAYORDER=
